<?xml version="1.0" encoding="utf-8"?><svg version="1.1" id="Layer_1" xmlns="http://www.w3.org/2000/svg" xmlns:xlink="http://www.w3.org/1999/xlink" x="0px" y="0px" viewBox="0 0 106.11 122.88" style="enable-background:new 0 0 106.11 122.88" xml:space="preserve"><style type="text/css">.st0{fill-rule:evenodd;clip-rule:evenodd;}</style><g><path class="st0" d="M53.02,97.39c1.67,0,3.02,1.35,3.02,3.02c0,1.67-1.35,3.02-3.02,3.02c-1.67,0-3.02-1.35-3.02-3.02 C50,98.74,51.35,97.39,53.02,97.39L53.02,97.39z M53.02,90.55c2.72,0,5.19,1.1,6.97,2.89c1.3,1.3,2.24,2.97,2.66,4.84h7.98 c8.7,0,16.61-3.56,22.34-9.3c3.85-3.85,6.73-8.69,8.2-14.09c0.02-0.1,0.04-0.19,0.08-0.28c0.67-2.55,1.02-5.22,1.02-7.97V51.01 c0-0.69-0.28-1.32-0.74-1.78c-0.46-0.46-1.09-0.74-1.78-0.74H94.9c-0.11,0.01-0.23,0.02-0.35,0.01l-6.99-0.01H6.37 c-0.69,0-1.33,0.29-1.79,0.74c-0.46,0.46-0.74,1.09-0.74,1.79v15.61c0,8.7,3.56,16.61,9.29,22.34c5.74,5.74,13.64,9.29,22.34,9.29 h7.91c0.41-1.87,1.35-3.53,2.66-4.84C47.83,91.65,50.3,90.55,53.02,90.55L53.02,90.55z M62.73,102.12 c-0.36,2.04-1.34,3.86-2.74,5.26c-1.78,1.78-4.25,2.89-6.97,2.89s-5.19-1.1-6.97-2.89c-1.4-1.4-2.38-3.22-2.74-5.26h-7.83 c-9.76,0-18.63-3.99-25.06-10.42c-1.87-1.87-3.54-3.96-4.96-6.21v15.85c0,4.87,1.99,9.29,5.2,12.5c3.21,3.21,7.63,5.2,12.5,5.2 h60.3c4.86,0,9.28-1.99,12.48-5.2c3.21-3.21,5.2-7.62,5.2-12.48V84.7c-1.52,2.55-3.35,4.9-5.45,6.99 c-6.43,6.43-15.3,10.42-25.06,10.42H62.73L62.73,102.12z M47.02,99.92c0.01,0.09,0.02,0.18,0.02,0.27c0,0.13-0.01,0.25-0.04,0.37 c0.04,1.6,0.71,3.04,1.76,4.09c1.09,1.09,2.59,1.76,4.25,1.76s3.16-0.67,4.25-1.76c1.09-1.09,1.76-2.59,1.76-4.25 s-0.67-3.16-1.76-4.25c-1.09-1.09-2.59-1.76-4.25-1.76s-3.17,0.67-4.25,1.76C47.78,97.13,47.14,98.45,47.02,99.92L47.02,99.92z M1.62,77.2C0.57,73.86,0,70.31,0,66.64V51.03c0-1.75,0.72-3.35,1.87-4.5c1.15-1.15,2.75-1.87,4.5-1.87h3.55L40,10.04 c0.47-0.54,0.93-1.1,1.41-1.68C44.44,4.67,48.26,0.03,53.23,0c5.12-0.03,8.69,4.37,11.58,7.94c0.31,0.38,0.61,0.75,1.05,1.28 l29.7,35.43h4.19c1.75,0,3.34,0.72,4.49,1.87c1.15,1.15,1.87,2.74,1.87,4.49v15.62c0,3.06-0.39,6.04-1.13,8.88v25.84 c0,5.92-2.42,11.3-6.32,15.2c-3.9,3.9-9.28,6.32-15.2,6.32h-60.3c-5.93,0-11.31-2.42-15.22-6.33c-3.9-3.9-6.33-9.29-6.33-15.22 V77.2L1.62,77.2z M74.61,44.65h15.95L62.92,11.68c-0.25-0.29-0.66-0.8-1.08-1.32c-2.38-2.94-5.31-6.55-8.6-6.53 c-3.16,0.02-6.35,3.89-8.89,6.97c-0.53,0.64-1.03,1.25-1.47,1.75L15.06,44.58L74.61,44.65L74.61,44.65z"/></g></svg>